# xmcd
#
# Track frame offsets: 
#        150
#        15405
#        26159
#        44177
#        58208
#        75192
#        93796
#        107991
#        124707
#        140443
#        154692
#        163994
#
# Disc length: 2454 seconds
#
# Revision: 4
# Processed by: cddbd v1.5.2PL0 Copyright (c) Steve Scherf et al.
# Submitted via: ExactAudioCopyFreeDBPlugin 1.0
#
DISCID=9a09940c
DTITLE=Justin Roberts - Way Out
DYEAR=2004
DGENRE=Country
TTITLE0=Airplane of Food
TTITLE1=Day Camp
TTITLE2=Best Friend
TTITLE3=Doctor, Doctor
TTITLE4=Way Out
TTITLE5=Roller in the Coaster
TTITLE6=Humpty's at it Again
TTITLE7=Picture Day
TTITLE8=Bigger
TTITLE9=I Lost the Tooth I Lost
TTITLE10=Backyard Spaceship
TTITLE11=Suppertime
EXTD=YEAR: 2004
EXTT0=
EXTT1=
EXTT2=
EXTT3=
EXTT4=
EXTT5=
EXTT6=
EXTT7=
EXTT8=
EXTT9=
EXTT10=
EXTT11=
PLAYORDER=
